<?xml version="1.0" encoding="UTF-8"?>
<svg id="Layer_1" xmlns="http://www.w3.org/2000/svg" version="1.1" viewBox="0 0 287.61 75.22">
  <!-- Generator: Adobe Illustrator 29.8.4, SVG Export Plug-In . SVG Version: 2.1.1 Build 6)  -->
  <defs>
    <style>
      .st0 {
        fill: #2e2f30;
      }
    </style>
  </defs>
  <path class="st0" d="M278.76,25.84c-2.66-1.58-23.36-15.09-41.21-15.62-18.15-.54-28.86,18.21-46.76,18.02-16.8-.18-30.08-17.94-46.87-17.94-16.78,0-30.56,17.92-47.46,17.92-16.89,0-30.19-18-47.01-18-14.31,0-37.02,13.64-39.93,15.22-2.91,1.58-6.27,2.99-5.25,5.08.85,1.75.75,1.62,1.64,3.3,1.18,1.38,2.26.37,7.01-2.14,4.75-2.51,21.09-14.47,36.53-14.47,16.84,0,30.36,18,47.09,18,16.73,0,30.23-18,46.9-18,16.68,0,30.39,18,47.18,18,16.78,0,30.15-18,46.88-18,14.81,0,35.47,14.09,38.3,15.58,2.83,1.49,4.47,2.59,5.27.8.8-1.79.35-.84,1.41-3.11,1.06-2.27-1.41-3.25-3.74-4.63Z"/>
  <path class="st0" d="M26.62,47.35c3.8-1.93,12.67-7.06,21.81-7.06,18.35,0,29.18,18.41,47.28,18.22,16.98-.18,30.42-18.13,47.39-18.13s30.9,18.12,47.98,18.12,30.52-18.2,47.53-18.2c7.39,0,19.61,8.59,24.34,11.04,1.21.71,2.63,1.15,2.09,2.45-.19.58-1.89,3.54-2.78,4.8-.89,1.26-2.28-.04-3.22-.6-4.63-2.73-14.26-8.91-20.44-8.91-17.03,0-30.7,18.2-47.61,18.2s-30.56-18.2-47.42-18.2-30.73,18.2-47.7,18.2-30.48-18.2-47.4-18.2c-5.95,0-15.87,4.77-19,6.3-3.35,1.63-5.21,3.4-6.59,1.56-1.38-1.83-1.19-1.87-2.27-4.17s2.21-3.48,6.02-5.42Z"/>
</svg>