<?xml version="1.0" encoding="UTF-8"?>
<svg id="Layer_1" xmlns="http://www.w3.org/2000/svg" version="1.1" viewBox="0 0 64 64">
  <!-- Generator: Adobe Illustrator 29.8.4, SVG Export Plug-In . SVG Version: 2.1.1 Build 6)  -->
  <defs>
    <style>
      .st0 {
        fill: #b08a94;
        fill-rule: evenodd;
      }
    </style>
  </defs>
  <path class="st0" d="M31.76,1.44c3.76,0,6.95,4.9,8.54,8.54,1.4,3.19,2.48,6.67,3.42,10.46,2.09,8.42,1.43,20.81-.57,28.69-.91,3.59-1.77,6.9-3.11,9.94-.66,1.49-1.29,3.25-3.21,3.47-1.86.21-3.49-1.77-5.44-2.02-2.05-.26-4.04,3.1-6.16,1.55-2.33-1.7-3.86-8.84-4.76-12.32-2.72-13.29-.96-24.73-.22-29.4s2.02-8.5,3.13-11.11S28,1.44,31.76,1.44Z"/>
</svg>