<?xml version="1.0" encoding="UTF-8"?>
<svg id="Layer_1" xmlns="http://www.w3.org/2000/svg" version="1.1" viewBox="0 0 64 64">
  <!-- Generator: Adobe Illustrator 29.8.4, SVG Export Plug-In . SVG Version: 2.1.1 Build 6)  -->
  <defs>
    <style>
      .st0 {
        fill: #caa882;
        fill-rule: evenodd;
      }
    </style>
  </defs>
  <path class="st0" d="M31.52,3.51c.67-.02,1.21.03,1.6.3,1.94,1.32,1.02,9.59-1.05,10.02-1.53.32-2.1-1.63-2.41-2.66-.6-2.02-.71-5.32.45-6.82.34-.43.91-.57,1.4-.85Z"/>
  <path class="st0" d="M51.42,11.03c1.73-.04,2.85,1.18,2.21,2.96-.73,2.02-3.36,3.62-5.31,4.46-.54.23-1.78.79-2.56.3-1.01-.64-.37-2.34.1-3.06,1.02-1.54,2.49-3.28,4.11-4.21l1.45-.45Z"/>
  <path class="st0" d="M13.43,11.48c3.02-.06,4.71,2.33,5.81,4.21.51.87,1.09,2.54,0,3.26-.87.57-2.34-.1-3.01-.4-1.99-.91-6.95-5.1-2.81-7.07Z"/>
  <path class="st0" d="M32.12,18.19c2.28-.03,4.16.16,5.81.75,5.99,2.14,10.61,10.32,7.17,18.3-1.82,4.21-5.27,6.86-10.43,7.77-2.34.41-4.84-.23-6.42-.85-1.78-.7-3.24-1.47-4.61-2.56-3.23-2.56-5.59-8.62-3.61-14.19,1.33-3.76,4.52-7.04,8.27-8.37,1.13-.4,2.64-.38,3.81-.85Z"/>
  <path class="st0" d="M8.51,28.82c2.32-.03,7.46.65,5.81,3.46-1.4,2.38-9.03,2.66-10.58.2-.26-.42-.33-1.17-.1-1.65.59-1.25,1.86-1.62,3.41-1.9l1.45-.1Z"/>
  <path class="st0" d="M55.23,29.02c2.42-.06,6.64.95,4.81,3.61-1.35,1.96-8.69,1.82-9.77-.25-.26-.49-.17-1.07.05-1.5.63-1.24,1.88-1.46,3.46-1.75l1.45-.1Z"/>
  <path class="st0" d="M17.44,44.16c2.2-.06,2.96,1.12,2.06,3.06-.96,2.05-2.39,3.86-4.21,5.06-.7.46-1.93,1.15-3.01.5-1.12-.68-1.17-2.43-.55-3.66,1.26-2.49,3.3-3.59,5.71-4.96Z"/>
  <path class="st0" d="M46.66,44.21c2.81-.05,5.7,3.05,6.77,4.86.67,1.14.75,2.99-.3,3.76-.9.66-2.41.45-3.31-.05-1.83-1.03-7.01-6.59-3.16-8.57Z"/>
  <path class="st0" d="M31.92,49.47c3.54-.04,4.03,10.32.55,10.98-2.38.45-2.81-2.61-2.81-4.76,0-2.76.49-5.17,2.26-6.22Z"/>
</svg>